<svg xmlns="http://www.w3.org/2000/svg" viewBox="0 0 900 600" role="img" aria-label="Notebook">
  <defs>
    <linearGradient id="bg" x1="0" y1="0" x2="1" y2="1">
      <stop offset="0" stop-color="#f4efe8"/>
      <stop offset="1" stop-color="#d8dde4"/>
    </linearGradient>
    <linearGradient id="screen" x1="0" y1="0" x2="1" y2="1">
      <stop offset="0" stop-color="#141826"/>
      <stop offset="1" stop-color="#25324c"/>
    </linearGradient>
  </defs>
  <rect width="900" height="600" fill="url(#bg)"/>
  <rect x="0" y="430" width="900" height="170" fill="#d0bfa7"/>
  <rect x="130" y="210" width="510" height="270" rx="10" fill="#f9fafb" stroke="#c3cad3" stroke-width="8"/>
  <rect x="170" y="245" width="430" height="225" rx="6" fill="url(#screen)"/>
  <rect x="375" y="482" width="130" height="14" rx="7" fill="#8b95a4"/>
  <rect x="150" y="485" width="470" height="18" rx="9" fill="#b08b63"/>
  <rect x="120" y="503" width="530" height="16" rx="8" fill="#9d7855"/>
  <g fill="#8de0ff" opacity="0.95">
    <rect x="205" y="278" width="140" height="12" rx="6"/>
    <rect x="205" y="304" width="110" height="12" rx="6"/>
    <rect x="205" y="330" width="168" height="12" rx="6"/>
    <rect x="205" y="356" width="98" height="12" rx="6"/>
  </g>
  <g fill="#ffb86b" opacity="0.9">
    <rect x="389" y="278" width="88" height="12" rx="6"/>
    <rect x="389" y="304" width="126" height="12" rx="6"/>
    <rect x="389" y="330" width="66" height="12" rx="6"/>
    <rect x="389" y="356" width="146" height="12" rx="6"/>
  </g>
  <circle cx="720" cy="210" r="44" fill="#eff6ff" stroke="#c9d6e7" stroke-width="6"/>
  <rect x="690" y="262" width="16" height="116" rx="8" fill="#9ea8b8"/>
  <circle cx="720" cy="326" r="10" fill="#7c8798"/>
</svg>
